<svg width="512" height="512" viewBox="0 0 512 512" fill="none" xmlns="http://www.w3.org/2000/svg">
  <!-- Background Circle -->
  <circle cx="256" cy="256" r="248" fill="url(#paint0_radial)" stroke="url(#paint1_linear)" stroke-width="16"/>
  
  <!-- OSI Layers (7 concentric arcs) -->
  <!-- Layer 7: Application - Purple -->
  <path d="M256 96C167.635 96 96 167.635 96 256C96 344.365 167.635 416 256 416" stroke="#9333EA" stroke-width="16" stroke-linecap="round"/>
  
  <!-- Layer 6: Presentation - Indigo -->
  <path d="M256 128C185.307 128 128 185.307 128 256C128 326.693 185.307 384 256 384" stroke="#6366F1" stroke-width="16" stroke-linecap="round"/>
  
  <!-- Layer 5: Session - Blue -->
  <path d="M256 160C202.98 160 160 202.98 160 256C160 309.02 202.98 352 256 352" stroke="#3B82F6" stroke-width="16" stroke-linecap="round"/>
  
  <!-- Layer 4: Transport - Green -->
  <path d="M256 192C220.654 192 192 220.654 192 256C192 291.346 220.654 320 256 320" stroke="#10B981" stroke-width="16" stroke-linecap="round"/>
  
  <!-- Layer 3: Network - Yellow -->
  <path d="M256 224C238.327 224 224 238.327 224 256C224 273.673 238.327 288 256 288" stroke="#FBBF24" stroke-width="16" stroke-linecap="round"/>
  
  <!-- Layer 2: Data Link - Orange -->
  <path d="M256 240C247.163 240 240 247.163 240 256C240 264.837 247.163 272 256 272" stroke="#F97316" stroke-width="16" stroke-linecap="round"/>
  
  <!-- Layer 1: Physical - Red (Center dot) -->
  <circle cx="256" cy="256" r="8" fill="#EF4444"/>
  
  <!-- Data Flow Animation -->
  <circle cx="256" cy="256" r="4" fill="white">
    <animateMotion 
      path="M0,0 A160,160 0 1,1 0,-0.01 z"
      dur="3s"
      repeatCount="indefinite"
    />
  </circle>
  
  <!-- Gradient Definitions -->
  <defs>
    <radialGradient id="paint0_radial" cx="0" cy="0" r="1" gradientUnits="userSpaceOnUse" gradientTransform="translate(256 256) rotate(90) scale(248)">
      <stop offset="0" stop-color="#1E293B"/>
      <stop offset="1" stop-color="#0F172A"/>
    </radialGradient>
    <linearGradient id="paint1_linear" x1="96" y1="96" x2="416" y2="416" gradientUnits="userSpaceOnUse">
      <stop stop-color="#3B82F6"/>
      <stop offset="1" stop-color="#8B5CF6"/>
    </linearGradient>
  </defs>
</svg>